<svg width="216" height="44" fill="none" xmlns="http://www.w3.org/2000/svg"><path d="M13.127 37.632H7.37V15.477H0V10.73h20.498v4.747h-7.371v22.155Zm24.88 0-.762-2.631h-.297c-.606.957-1.467 1.699-2.58 2.226-1.115.515-2.383.773-3.807.773-2.438 0-4.276-.644-5.514-1.932-1.238-1.3-1.857-3.165-1.857-5.594V17.06h5.663v12.016c0 1.484.266 2.6.798 3.349.533.736 1.38 1.104 2.544 1.104 1.584 0 2.73-.522 3.435-1.565.706-1.054 1.058-2.796 1.058-5.225v-9.68h5.663v20.573h-4.344Zm19.031-4.103c.99 0 2.178-.215 3.565-.645v4.178c-1.412.625-3.145.938-5.2.938-2.264 0-3.917-.564-4.957-1.693-1.027-1.14-1.54-2.846-1.54-5.115v-9.919h-2.711V18.9l3.119-1.877 1.634-4.343h3.62v4.38h5.812v4.213h-5.812v9.919c0 .797.223 1.386.669 1.766.458.38 1.058.57 1.8.57Zm12.291-6.22c0 2.036.334 3.576 1.003 4.619.68 1.042 1.782 1.564 3.305 1.564 1.51 0 2.593-.515 3.249-1.546.668-1.043 1.002-2.588 1.002-4.637 0-2.036-.334-3.564-1.002-4.582-.669-1.018-1.764-1.527-3.287-1.527-1.51 0-2.599.509-3.267 1.527-.669 1.006-1.003 2.533-1.003 4.582Zm14.352 0c0 3.349-.891 5.968-2.673 7.857C79.225 37.056 76.743 38 73.562 38c-1.993 0-3.75-.43-5.273-1.288-1.522-.871-2.692-2.116-3.509-3.736-.817-1.619-1.225-3.508-1.225-5.667 0-3.361.885-5.974 2.655-7.839 1.77-1.864 4.258-2.797 7.464-2.797 1.992 0 3.75.43 5.273 1.288 1.522.859 2.692 2.092 3.509 3.699.817 1.607 1.225 3.49 1.225 5.649Zm16.265-10.636c.767 0 1.405.055 1.912.166l-.427 5.263c-.458-.123-1.015-.184-1.67-.184-1.808 0-3.22.46-4.234 1.38-1.003.92-1.504 2.208-1.504 3.864v10.47H88.36V17.06h4.29l.835 3.459h.278a7.712 7.712 0 0 1 2.6-2.778 6.48 6.48 0 0 1 3.583-1.068Zm62.823 20.959h-15.634V10.73h15.634v4.674h-9.878v5.906h9.191v4.674h-9.191v6.937h9.878v4.711Zm11.808.368c-2.438 0-4.357-.938-5.756-2.815-1.386-1.877-2.079-4.478-2.079-7.802 0-3.374.705-6 2.117-7.876 1.423-1.89 3.379-2.834 5.867-2.834 2.611 0 4.604 1.006 5.978 3.018h.186c-.285-1.533-.427-2.901-.427-4.103V9h5.681v28.632H181.8l-1.096-2.668h-.241c-1.287 2.024-3.249 3.036-5.886 3.036Zm1.987-4.471c1.448 0 2.506-.418 3.175-1.252.681-.834 1.052-2.25 1.114-4.25v-.608c0-2.208-.347-3.79-1.04-4.747-.681-.957-1.795-1.435-3.342-1.435-1.263 0-2.247.533-2.952 1.6-.693 1.056-1.04 2.595-1.04 4.62 0 2.023.353 3.544 1.058 4.563.706 1.006 1.715 1.509 3.027 1.509Zm15.262-21.787c0-1.828 1.027-2.742 3.082-2.742 2.055 0 3.082.914 3.082 2.742 0 .87-.26 1.552-.78 2.042-.507.479-1.275.718-2.302.718-2.055 0-3.082-.92-3.082-2.76Zm5.904 25.89h-5.663V17.06h5.663v20.572Zm14.705-4.103c.99 0 2.179-.215 3.565-.645v4.178c-1.411.625-3.144.938-5.199.938-2.265 0-3.917-.564-4.957-1.693-1.028-1.14-1.541-2.846-1.541-5.115v-9.919h-2.711V18.9l3.119-1.877 1.634-4.343h3.621v4.38h5.811v4.213h-5.811v9.919c0 .797.223 1.386.668 1.766.458.38 1.058.57 1.801.57Zm-97.398 4.85v-1.695c0-.907.897-1.635 2.013-1.647h12.27c1.117 0 2.013.728 2.013 1.635v1.695c0 1.36-1.219 2.47-2.821 2.673l-.499 1.54c-.28.835-1.205 1.42-2.278 1.42h-5.099c-1.073 0-1.999-.585-2.278-1.42l-.514-1.54c-1.587-.19-2.807-1.313-2.807-2.661Zm3.846-19.767a100.37 100.37 0 0 1-2.997-2.89c-.942-.936-1.883-1.786-2.825-2.722 1.113-2.38 2.568-4.251 5.223-4.846-.171-.68-.171-1.19.77-1.106.257 0 .857-.17.857-.34.085-.34-.086-.85-.172-1.19-.085-.255-.342-.426-.513-.68-.771.595-1.456 1.19-2.227 1.785l-.171-.17c0-1.616 0-1.616 1.713-2.126.342-.085.599-.425.941-.51.257-.085.429-.255.685-.085.172.17-.085.595-.256.935.77-.425 1.37-.595.77-1.445-.085-.17-.428-.34-.599-.34-.771 0-1.541.085-2.398.17v.595c-.513-.17-1.027-.17-1.37-.425-.77-.51-1.37-.17-1.969.255-.342.255-.599.425-.685 1.02-.171.766-.942 1.36-1.455 2.041-.771.935-1.542 1.956-2.398 2.976-.599-.255-.599-.68-.171-1.446 4.195-7.737 14.042-10.373 21.662-5.867 7.45 4.507 9.676 14.37 4.71 21.598-.857 1.276-2.055 2.38-3.168 3.401-.514.51-.771.936-.771 1.7 0 .766 0 1.531-.257 2.212-.428 1.615-1.37 2.295-2.997 2.295h-10.874c-2.14 0-3.425-.765-3.339-2.89 0-2.126-.856-3.402-2.397-4.507-.086-.085-.172-.255-.343-.425l2.74-2.721c.514.68 1.113 1.36 1.541 2.04.685 1.36 1.456 2.636 2.655 3.572.171-.425.256-.85.428-1.276.428-.85.256-1.956 1.37-2.466.171-.085.171-.595.256-.935.172-.51.172-1.02.429-1.445.342-.68.256-1.02-.514-1.361-.6-.255-1.113-.68-1.713-.935-1.027-.17-1.027-.68-.171-1.446Zm11.902-14.285c-.857-.17-1.798-.595-2.141-.34-.514.425-.77 1.276.086 1.956.428.34.342.765-.086 1.105-.257.255-.599.51-.77.68.171.426.256.766.428 1.106-.428.085-.685.085-.942.085-.086.17-.171.425-.171.595.085.34.256.765.428.85.257.085.77-.17.856-.425.342-.765.685-1.53 1.627-1.19.599.17 1.627-.085 1.883.935 0 0 .086.085.172.085.171-.17.257-.34.342-.425.428.34.856.85 1.199.85 1.027.085.856.68.77 1.36-.77.34-1.626-.595-2.311.34h-.172a55.993 55.993 0 0 1-1.969-1.445s-.257 0-.514.085c-.77.34-1.798.085-2.311 1.02-.429.851-.942 1.616-1.37 2.467-.086.17-.172.34-.172.51.086 1.105-.171 2.21.6 3.316.685 1.02 1.37 1.615 2.483 1.105 1.027-.51 1.541 0 2.055.255.085.936.257 1.701.257 2.466 0 .596-.086 1.106-.257 1.7-.428 1.361-.942 2.637-1.542 4.252 2.398-.85 3.854-2.465 4.967-4.166 1.198-1.87 2.055-4.081 3.082-6.292h-1.027c.856-1.276 1.883-2.466.941-4.082.343 0 .6-.085.942-.085-.856-4.251-3.168-7.482-6.678-9.778-.428.34-.6.85-.685 1.105Zm-8.648.936c.942-.51 1.541-.936 2.226-1.106.685-.17.856-.68.685-1.105-.086-.255-.685-.425-1.113-.51-.343-.085-.771 0-1.199 0h-1.884v.34c.172 0 .343-.085.429 0 .428.17.856.255 1.198.51.086.085-.257.595-.257.935-.085.255-.085.595-.085.936Z" fill="#fff"/></svg>